<svg width="160" height="40" viewBox="0 0 160 40" fill="none" xmlns="http://www.w3.org/2000/svg">
<path d="M140 16.4062C138 16.4062 136.406 18.0312 136.406 20C136.406 22 138 23.5938 140 23.5938C141.969 23.5938 143.594 22 143.594 20C143.594 18.0312 141.969 16.4062 140 16.4062ZM140 22.3438C138.719 22.3438 137.656 21.3125 137.656 20C137.656 18.7188 138.688 17.6875 140 17.6875C141.281 17.6875 142.312 18.7188 142.312 20C142.312 21.3125 141.281 22.3438 140 22.3438ZM144.562 16.2812C144.562 15.8125 144.188 15.4375 143.719 15.4375C143.25 15.4375 142.875 15.8125 142.875 16.2812C142.875 16.75 143.25 17.125 143.719 17.125C144.188 17.125 144.562 16.75 144.562 16.2812ZM146.938 17.125C146.875 16 146.625 15 145.812 14.1875C145 13.375 144 13.125 142.875 13.0625C141.719 13 138.25 13 137.094 13.0625C135.969 13.125 135 13.375 134.156 14.1875C133.344 15 133.094 16 133.031 17.125C132.969 18.2812 132.969 21.75 133.031 22.9062C133.094 24.0312 133.344 25 134.156 25.8438C135 26.6562 135.969 26.9062 137.094 26.9688C138.25 27.0312 141.719 27.0312 142.875 26.9688C144 26.9062 145 26.6562 145.812 25.8438C146.625 25 146.875 24.0312 146.938 22.9062C147 21.75 147 18.2812 146.938 17.125ZM145.438 24.125C145.219 24.75 144.719 25.2188 144.125 25.4688C143.188 25.8438 141 25.75 140 25.75C138.969 25.75 136.781 25.8438 135.875 25.4688C135.25 25.2188 134.781 24.75 134.531 24.125C134.156 23.2188 134.25 21.0312 134.25 20C134.25 19 134.156 16.8125 134.531 15.875C134.781 15.2812 135.25 14.8125 135.875 14.5625C136.781 14.1875 138.969 14.2812 140 14.2812C141 14.2812 143.188 14.1875 144.125 14.5625C144.719 14.7812 145.188 15.2812 145.438 15.875C145.812 16.8125 145.719 19 145.719 20C145.719 21.0312 145.812 23.2188 145.438 24.125Z" fill="white"/>
<circle opacity="0.4" cx="140" cy="20" r="19.5" stroke="white"/>
<path d="M86.3438 16.75C86.9688 16.2812 87.5312 15.7188 87.9688 15.0625C87.4062 15.3125 86.75 15.5 86.0938 15.5625C86.7812 15.1562 87.2812 14.5312 87.5312 13.75C86.9062 14.125 86.1875 14.4062 85.4688 14.5625C84.8438 13.9062 84 13.5312 83.0625 13.5312C81.25 13.5312 79.7812 15 79.7812 16.8125C79.7812 17.0625 79.8125 17.3125 79.875 17.5625C77.1562 17.4062 74.7188 16.0938 73.0938 14.125C72.8125 14.5938 72.6562 15.1562 72.6562 15.7812C72.6562 16.9062 73.2188 17.9062 74.125 18.5C73.5938 18.4688 73.0625 18.3438 72.625 18.0938V18.125C72.625 19.7188 73.75 21.0312 75.25 21.3438C75 21.4062 74.6875 21.4688 74.4062 21.4688C74.1875 21.4688 74 21.4375 73.7812 21.4062C74.1875 22.7188 75.4062 23.6562 76.8438 23.6875C75.7188 24.5625 74.3125 25.0938 72.7812 25.0938C72.5 25.0938 72.25 25.0625 72 25.0312C73.4375 25.9688 75.1562 26.5 77.0312 26.5C83.0625 26.5 86.3438 21.5312 86.3438 17.1875C86.3438 17.0312 86.3438 16.9062 86.3438 16.75Z" fill="white"/>
<circle opacity="0.4" cx="80" cy="20" r="19.5" stroke="white"/>
<path d="M23.7188 21L24.1562 18.125H21.375V16.25C21.375 15.4375 21.75 14.6875 23 14.6875H24.2812V12.2188C24.2812 12.2188 23.125 12 22.0312 12C19.75 12 18.25 13.4062 18.25 15.9062V18.125H15.6875V21H18.25V28H21.375V21H23.7188Z" fill="white"/>
<circle opacity="0.4" cx="20" cy="20" r="19.5" stroke="white"/>
</svg>
